<svg width="52" height="52" viewBox="0 0 52 52" fill="none" xmlns="http://www.w3.org/2000/svg">
<path d="M47.2095 3.20664L48.4878 4.48497C50.2493 6.24864 49.9828 9.37514 47.8877 11.4681L21.5258 37.83L12.9848 40.9543C11.9123 41.3486 10.868 40.8373 10.6557 39.8168C10.5839 39.4466 10.6177 39.0637 10.7532 38.7118L13.9382 30.0971L40.2263 3.80681C42.3215 1.71381 45.448 1.44297 47.2095 3.20664ZM20.3753 5.82831C20.6599 5.82831 20.9416 5.88435 21.2045 5.99323C21.4674 6.10212 21.7062 6.26172 21.9074 6.46291C22.1086 6.6641 22.2682 6.90295 22.3771 7.16583C22.486 7.4287 22.542 7.71044 22.542 7.99497C22.542 8.2795 22.486 8.56125 22.3771 8.82412C22.2682 9.08699 22.1086 9.32584 21.9074 9.52704C21.7062 9.72823 21.4674 9.88783 21.2045 9.99671C20.9416 10.1056 20.6599 10.1616 20.3753 10.1616H11.7087C10.5594 10.1616 9.4572 10.6182 8.64454 11.4308C7.83189 12.2435 7.37534 13.3457 7.37534 14.495V40.495C7.37534 41.6442 7.83189 42.7464 8.64454 43.5591C9.4572 44.3718 10.5594 44.8283 11.7087 44.8283H37.7087C38.8579 44.8283 39.9602 44.3718 40.7728 43.5591C41.5855 42.7464 42.042 41.6442 42.042 40.495V31.8283C42.042 31.2537 42.2703 30.7026 42.6766 30.2962C43.0829 29.8899 43.634 29.6616 44.2087 29.6616C44.7833 29.6616 45.3344 29.8899 45.7407 30.2962C46.1471 30.7026 46.3753 31.2537 46.3753 31.8283V40.495C46.3753 42.7935 45.4623 44.9979 43.8369 46.6232C42.2116 48.2485 40.0072 49.1616 37.7087 49.1616H11.7087C9.41013 49.1616 7.20573 48.2485 5.58042 46.6232C3.9551 44.9979 3.04201 42.7935 3.04201 40.495V14.495C3.04201 12.1964 3.9551 9.99203 5.58042 8.36671C7.20573 6.7414 9.41013 5.82831 11.7087 5.82831H20.3753Z" fill="#31BAD0"/>
</svg>
