<svg width="48" height="48" viewBox="0 0 48 48" fill="none" xmlns="http://www.w3.org/2000/svg">
<path d="M22.5429 12.8079L3.76891 17.8383C2.52412 18.1719 1.46281 18.9863 0.818454 20.1023C0.174103 21.2184 -0.000508442 22.5447 0.333032 23.7895L2.84827 33.1764C3.18181 34.4212 3.99618 35.4825 5.11223 36.1269C6.22828 36.7712 7.55458 36.9459 8.79937 36.6123L11.1461 35.9835L13.6614 45.3705C13.8281 45.9929 14.2353 46.5235 14.7933 46.8457C15.3514 47.1679 16.0145 47.2552 16.6369 47.0884L21.3304 45.8308C21.9528 45.664 22.4835 45.2569 22.8056 44.6988C23.1278 44.1408 23.2151 43.4777 23.0483 42.8553L20.5331 33.4683L27.5733 31.5818L41.8223 37.8248L31.7614 0.276856L22.5429 12.8079ZM34.3621 28.7567L28.6625 26.2595L7.54176 31.9188L5.02652 22.5318L26.1472 16.8726L29.8346 11.8602L34.3621 28.7567ZM47.3522 16.2212C48.4275 20.2341 47.1492 24.4752 44.0006 27.1802L38.9701 8.40622C43.0322 9.2042 46.2832 12.2317 47.3522 16.2212Z" fill="#31BAD0"/>
</svg>
