<svg width="44" height="48" viewBox="0 0 44 48" fill="none" xmlns="http://www.w3.org/2000/svg">
<path d="M36.5 33.0625C35.5236 33.0621 34.5572 33.2597 33.6592 33.6432C32.7612 34.0268 31.9503 34.5884 31.2755 35.2941L14.5099 25.8612C14.8346 24.6416 14.8346 23.3583 14.5099 22.1388L31.2755 12.7058C32.4963 13.9716 34.1368 14.7488 35.8895 14.8918C37.6423 15.0348 39.387 14.5339 40.797 13.4829C42.2069 12.4318 43.1852 10.9028 43.5487 9.18218C43.9121 7.46158 43.6358 5.66749 42.7714 4.13601C41.9071 2.60453 40.514 1.44075 38.8531 0.862683C37.1923 0.284619 35.3776 0.331938 33.7492 0.995775C32.1207 1.65961 30.7901 2.89442 30.0068 4.46886C29.2234 6.04331 29.0409 7.84936 29.4936 9.54868L12.7279 18.9816C11.7265 17.9374 10.4355 17.2168 9.02108 16.9123C7.60666 16.6079 6.1335 16.7336 4.79111 17.2732C3.44873 17.8129 2.29851 18.7419 1.48844 19.9407C0.678364 21.1394 0.245483 22.5532 0.245483 24C0.245483 25.4468 0.678364 26.8605 1.48844 28.0593C2.29851 29.258 3.44873 30.187 4.79111 30.7267C6.1335 31.2664 7.60666 31.3921 9.02108 31.0876C10.4355 30.7832 11.7265 30.0625 12.7279 29.0183L29.4936 38.4513C29.1048 39.9147 29.1841 41.4631 29.7202 42.8792C30.2563 44.2954 31.2223 45.5081 32.4827 46.3473C33.743 47.1864 35.2346 47.6099 36.7479 47.5583C38.2612 47.5066 39.7203 46.9824 40.9206 46.0593C42.1208 45.1362 43.0019 43.8604 43.4402 42.411C43.8785 40.9617 43.852 39.4114 43.3644 37.9779C42.8768 36.5443 41.9526 35.2995 40.7215 34.4179C39.4904 33.5363 38.0142 33.0623 36.5 33.0625Z" fill="#31BAD0"/>
</svg>
