<svg width="183" height="23" viewBox="0 0 183 23" fill="none" xmlns="http://www.w3.org/2000/svg">
<path d="M127.06 22C106.256 15.4701 83.0318 19.0133 61.9826 19.613C55.9301 19.7856 49.7375 20.9365 43.6908 20.4437C42.9022 20.3797 39.4614 20.1395 38.816 18.8562C38.7317 18.6892 41.4147 18.0307 42.7183 17.749C45.2528 17.2012 47.7862 16.7971 50.3187 16.2186C56.9766 14.6987 63.751 13.9571 70.4672 13.2739C87.7078 11.5216 118.55 6.1214 135.4 13.7369C136.235 14.1141 133.654 13.6719 132.781 13.6369C131.346 13.5798 129.912 13.4971 128.477 13.4309C123.797 13.2159 119.078 12.8334 114.398 12.8936C99.3143 13.0861 84.1777 12.161 69.098 12.9896C64.5605 13.2393 60.0375 13.7576 55.498 13.9579C52.8686 14.0739 52.9864 14.1721 50.2689 14.0367C49.0906 13.9778 45.8234 14.4983 46.7553 13.4379C48.3966 11.5696 53.5264 12.0369 55.5104 11.6557C64.5694 9.91723 73.6059 7.64698 82.7112 6.42728C106.058 3.29993 129.825 3.29257 153.225 4.60097C162.797 5.13618 172.469 3.06587 182 4.73858C158.873 0.353452 134.833 0.97606 111.579 1.10283C85.3975 1.24561 59.2451 1.25513 33.0625 2.06509C22.3137 2.39739 11.7816 5.40263 1 5.18327" stroke="url(#paint0_linear_117_1047)" stroke-width="2" stroke-miterlimit="1.5" stroke-linecap="round" stroke-linejoin="round"/>
<defs>
<linearGradient id="paint0_linear_117_1047" x1="91.5" y1="1" x2="91.5" y2="22" gradientUnits="userSpaceOnUse">
<stop stop-color="#00C1FF"/>
<stop offset="0.921875" stop-color="#01358C"/>
</linearGradient>
</defs>
</svg>
